<svg width="40" height="40" viewBox="0 0 40 40" fill="none" xmlns="http://www.w3.org/2000/svg">
<path d="M0 20C0 8.95431 8.95431 0 20 0C31.0457 0 40 8.95431 40 20C40 31.0457 31.0457 40 20 40C8.95431 40 0 31.0457 0 20Z" fill="#F9EBEA"/>
<path d="M20.0007 20.0001C22.3018 20.0001 24.1673 18.1346 24.1673 15.8334C24.1673 13.5322 22.3018 11.6667 20.0007 11.6667C17.6995 11.6667 15.834 13.5322 15.834 15.8334C15.834 18.1346 17.6995 20.0001 20.0007 20.0001Z" stroke="#C0392B" stroke-width="1.25" stroke-linecap="round" stroke-linejoin="round"/>
<path d="M12.8418 28.3333C12.8418 25.1083 16.0501 22.5 20.0001 22.5C20.8001 22.5 21.5751 22.6083 22.3001 22.8083" stroke="#C0392B" stroke-width="1.25" stroke-linecap="round" stroke-linejoin="round"/>
<path d="M28.3327 25.0001C28.3327 25.2667 28.2994 25.5251 28.2327 25.7751C28.1577 26.1084 28.0244 26.4334 27.8494 26.7167C27.2744 27.6834 26.216 28.3334 24.9993 28.3334C24.141 28.3334 23.366 28.0084 22.7827 27.4751C22.5327 27.2584 22.316 27.0001 22.1493 26.7167C21.841 26.2167 21.666 25.6251 21.666 25.0001C21.666 24.1001 22.0244 23.2751 22.6077 22.6751C23.216 22.0501 24.066 21.6667 24.9993 21.6667C25.9827 21.6667 26.8743 22.0918 27.4743 22.7751C28.0077 23.3668 28.3327 24.1501 28.3327 25.0001Z" stroke="#C0392B" stroke-width="1.25" stroke-miterlimit="10" stroke-linecap="round" stroke-linejoin="round"/>
<path d="M25.8579 24.1167L24.0996 25.875" stroke="#C0392B" stroke-width="1.25" stroke-miterlimit="10" stroke-linecap="round" stroke-linejoin="round"/>
<path d="M24.1152 24.1338L25.8819 25.8921" stroke="#C0392B" stroke-width="1.25" stroke-miterlimit="10" stroke-linecap="round" stroke-linejoin="round"/>
</svg>
