<svg width="40" height="40" viewBox="0 0 40 40" fill="none" xmlns="http://www.w3.org/2000/svg">
<path d="M0 20C0 8.95431 8.95431 0 20 0C31.0457 0 40 8.95431 40 20C40 31.0457 31.0457 40 20 40C8.95431 40 0 31.0457 0 20Z" fill="#F9EBEA"/>
<path d="M28.3327 19.2503V15.7503C28.3327 12.8337 27.166 11.667 24.2493 11.667H20.7493C17.8327 11.667 16.666 12.8337 16.666 15.7503V16.667H19.2493C22.166 16.667 23.3327 17.8337 23.3327 20.7503V23.3337H24.2493C27.166 23.3337 28.3327 22.167 28.3327 19.2503Z" stroke="#C0392B" stroke-width="1.25" stroke-linecap="round" stroke-linejoin="round"/>
<path d="M23.3327 24.2503V20.7503C23.3327 17.8337 22.166 16.667 19.2493 16.667H15.7493C12.8327 16.667 11.666 17.8337 11.666 20.7503V24.2503C11.666 27.167 12.8327 28.3337 15.7493 28.3337H19.2493C22.166 28.3337 23.3327 27.167 23.3327 24.2503Z" stroke="#C0392B" stroke-width="1.25" stroke-linecap="round" stroke-linejoin="round"/>
<path d="M15.0664 22.5L16.6914 24.125L19.9331 20.875" stroke="#C0392B" stroke-width="1.25" stroke-linecap="round" stroke-linejoin="round"/>
</svg>
