<svg width="16" height="8" viewBox="0 0 16 8" fill="none" xmlns="http://www.w3.org/2000/svg">
<path d="M3.43906 1.05035V0.109177H15.0588V1.05035H3.43906ZM3.43906 4.23529V3.29412H15.0588V4.23529H3.43906ZM3.43906 7.42118V6.48H15.0588V7.42118H3.43906ZM0.579765 1.15765C0.415373 1.15765 0.277647 1.10024 0.166588 0.985412C0.0555295 0.871843 0 0.730353 0 0.560941C0 0.402196 0.0555295 0.269176 0.166588 0.161882C0.277647 0.0539607 0.415373 0 0.579765 0C0.74353 0 0.880941 0.0539607 0.992 0.161882C1.10306 0.268549 1.15859 0.401568 1.15859 0.560941C1.15859 0.730353 1.10306 0.872157 0.992 0.986353C0.880941 1.10118 0.743216 1.15859 0.578823 1.15859M0.578823 4.32565C0.415059 4.32565 0.277647 4.272 0.166588 4.16471C0.0555295 4.05741 0 3.92408 0 3.76471C0 3.58275 0.0555295 3.4378 0.166588 3.32988C0.277647 3.22196 0.415373 3.16769 0.579765 3.16706C0.744157 3.16643 0.881569 3.22039 0.992 3.32894C1.10243 3.43749 1.15796 3.58275 1.15859 3.76471C1.15859 3.92345 1.10306 4.05678 0.992 4.16471C0.880941 4.27263 0.743216 4.32627 0.578823 4.32565ZM0.578823 7.52941C0.415059 7.52941 0.277647 7.47231 0.166588 7.35812C0.0555295 7.24329 0 7.10149 0 6.93271C0 6.77333 0.0555295 6.64 0.166588 6.53271C0.277647 6.42478 0.415373 6.37082 0.579765 6.37082C0.74353 6.37082 0.880941 6.42478 0.992 6.53271C1.10306 6.64063 1.15859 6.77396 1.15859 6.93271C1.15859 7.10149 1.10306 7.24329 0.992 7.35812C0.880941 7.47231 0.743216 7.52941 0.578823 7.52941Z" fill="black"/>
</svg>
