<svg width="32" height="46" viewBox="0 0 32 46" fill="none" xmlns="http://www.w3.org/2000/svg">
<path d="M15.2934 35.7015C15.4809 35.8888 15.7351 35.994 16.0001 35.994C16.2651 35.994 16.5192 35.8888 16.7067 35.7015L19.7067 32.7028C19.8834 32.5133 19.9796 32.2625 19.975 32.0035C19.9704 31.7444 19.8655 31.4972 19.6822 31.314C19.499 31.1308 19.2518 31.0258 18.9928 31.0213C18.7337 31.0167 18.483 31.1129 18.2934 31.2895L16.0001 33.5788L13.7067 31.2868C13.6145 31.1914 13.5041 31.1152 13.382 31.0629C13.26 31.0105 13.1288 30.983 12.996 30.9819C12.8632 30.9808 12.7316 31.0062 12.6087 31.0565C12.4858 31.1069 12.3742 31.1812 12.2804 31.2751C12.1865 31.3691 12.1123 31.4807 12.0621 31.6037C12.0119 31.7266 11.9866 31.8583 11.9878 31.991C11.9891 32.1238 12.0167 32.255 12.0692 32.377C12.1216 32.499 12.1979 32.6093 12.2934 32.7015L15.2934 35.7015ZM16.0001 26.0708C15.7172 26.0708 15.4459 25.9585 15.2458 25.7584C15.0458 25.5584 14.9334 25.2871 14.9334 25.0042C14.9334 24.7213 15.0458 24.45 15.2458 24.2499C15.4459 24.0499 15.7172 23.9375 16.0001 23.9375C16.283 23.9375 16.5543 24.0499 16.7543 24.2499C16.9544 24.45 17.0667 24.7213 17.0667 25.0042C17.0667 25.2871 16.9544 25.5584 16.7543 25.7584C16.5543 25.9585 16.283 26.0708 16.0001 26.0708ZM14.9334 28.7588C14.9334 28.8989 14.961 29.0376 15.0146 29.167C15.0682 29.2964 15.1468 29.414 15.2458 29.5131C15.3449 29.6121 15.4625 29.6907 15.5919 29.7443C15.7213 29.7979 15.86 29.8255 16.0001 29.8255C16.1402 29.8255 16.2789 29.7979 16.4083 29.7443C16.5377 29.6907 16.6553 29.6121 16.7543 29.5131C16.8534 29.414 16.9319 29.2964 16.9856 29.167C17.0392 29.0376 17.0667 28.8989 17.0667 28.7588C17.0667 28.4759 16.9544 28.2046 16.7543 28.0046C16.5543 27.8045 16.283 27.6922 16.0001 27.6922C15.7172 27.6922 15.4459 27.8045 15.2458 28.0046C15.0458 28.2046 14.9334 28.4759 14.9334 28.7588Z" fill="#C28E5C"/>
<path fill-rule="evenodd" clip-rule="evenodd" d="M16 16.6719C13.3478 16.6719 10.8043 17.7254 8.92893 19.6008C7.05357 21.4762 6 24.0197 6 26.6719V33.3385C6 35.9907 7.05357 38.5342 8.92893 40.4096C10.8043 42.285 13.3478 43.3385 16 43.3385C18.6522 43.3385 21.1957 42.285 23.0711 40.4096C24.9464 38.5342 26 35.9907 26 33.3385V26.6719C26 24.0197 24.9464 21.4762 23.0711 19.6008C21.1957 17.7254 18.6522 16.6719 16 16.6719ZM8 26.6719C8 24.5501 8.84286 22.5153 10.3431 21.015C11.8434 19.5147 13.8783 18.6719 16 18.6719C18.1217 18.6719 20.1566 19.5147 21.6569 21.015C23.1571 22.5153 24 24.5501 24 26.6719V33.3385C24 35.4603 23.1571 37.4951 21.6569 38.9954C20.1566 40.4957 18.1217 41.3385 16 41.3385C13.8783 41.3385 11.8434 40.4957 10.3431 38.9954C8.84286 37.4951 8 35.4603 8 33.3385V26.6719Z" fill="#C28E5C"/>
</svg>
